<?xml version="1.0" encoding="utf-8"?>
<!-- Generator: Adobe Illustrator 23.0.0, SVG Export Plug-In . SVG Version: 6.00 Build 0)  -->
<svg version="1.1" id="Capa_1" xmlns="http://www.w3.org/2000/svg" xmlns:xlink="http://www.w3.org/1999/xlink" x="0px" y="0px"
	 viewBox="0 0 384 384" style="enable-background:new 0 0 384 384;" xml:space="preserve">
<style type="text/css">
	.st0{fill:#FFFFFF;}
</style>
<g>
	<g>
		<path class="st0" d="M341.3,21.3H42.7C19.1,21.3,0,40.4,0,64v256c0,23.6,19.1,42.7,42.7,42.7h298.7c23.6,0,42.7-19.1,42.7-42.7V64
			C384,40.4,364.9,21.3,341.3,21.3z M170.7,170.7h-32V160H96v64h42.7v-10.7h32v21.3c0,11.7-9.5,21.3-21.3,21.3h-64
			c-11.8,0-21.3-9.6-21.3-21.3v-85.3c0-11.7,9.5-21.3,21.3-21.3h64c11.8,0,21.3,9.6,21.3,21.3L170.7,170.7L170.7,170.7z M320,170.7
			h-32V160h-42.7v64H288v-10.7h32v21.3c0,11.7-9.5,21.3-21.3,21.3h-64c-11.8,0-21.3-9.6-21.3-21.3v-85.3c0-11.7,9.5-21.3,21.3-21.3
			h64c11.8,0,21.3,9.6,21.3,21.3V170.7z"/>
	</g>
</g>
</svg>
