<?xml version="1.0" encoding="utf-8"?>
<!-- Generator: Adobe Illustrator 23.0.0, SVG Export Plug-In . SVG Version: 6.00 Build 0)  -->
<svg version="1.1" id="Layer_1" xmlns="http://www.w3.org/2000/svg" xmlns:xlink="http://www.w3.org/1999/xlink" x="0px" y="0px"
	 viewBox="0 0 396.5 357.8" style="enable-background:new 0 0 396.5 357.8;" xml:space="preserve">
<style type="text/css">
	.st0{fill:none;stroke:#D4C7E5;stroke-width:2;stroke-linecap:round;stroke-miterlimit:10;stroke-dasharray:6;}
	.st1{fill:#3E4959;}
	.st2{opacity:0.74;fill:#43D8C9;enable-background:new    ;}
	.st3{fill:#CBD2DB;}
	.st4{fill:none;}
	.st5{fill:none;stroke:#FFFFFF;stroke-width:3;stroke-miterlimit:10;}
	.st6{fill:none;stroke:#77D8D8;stroke-width:3;stroke-miterlimit:10;}
	.st7{fill:#BCBEC0;}
	.st8{fill:#D1D3D4;}
	.st9{fill:#FFFFFF;}
	.st10{fill:#43D8C9;}
	.st11{fill:#D4C7E5;}
	.st12{fill:#4CBBB9;}
	.st13{fill:none;stroke:#CBD2DB;stroke-miterlimit:10;}
	.st14{fill:none;stroke:#FFFFFF;stroke-miterlimit:10;}
</style>
<title>illustration</title>
<g>
	<g>
		<g id="OBJECTS">
			<path class="st0" d="M277.5,329.7c27.4-3.1,47.8-30.6,56.5-48.7c8.4-17.5,39.8,0.4,29.5,8.8s-25.2-13.2-18.6-31.7
				c4.9-13.6,27.3-27.1,23.3-43.3"/>
			<path class="st0" d="M23.5,183.3c12.5-25.1,21.2-74.2,14.5-91.5S7.1,72.8,9.6,90.8c2.6,19,40.8,12.7,46.3-4s31.5-51.7,87-56.4"/>
			<path class="st0" d="M164.3,316.6C138.9,311,96.8,324,50,315.4s-57.5-55.8-43-84.9"/>
			<path class="st0" d="M241.5,49c15,18.9,105,14.2,137.1,48.4s9.6,86.2,3.2,94.6"/>
			<path class="st1" d="M171,16.1C237.3,11,241.5,62,291.6,91.5c21.9,12.9,98.8,11,98.7,79c-0.1,54.5-63.7,70.5-71.2,92.3
				s-5.2,82-64.6,92.9c-78.3,14.4-96.8-51.2-144.1-55S10.4,292.6,2,232.9c-8.9-63.1,65.4-89.3,76.6-121.9S96.3,21.9,171,16.1z"/>
			
				<ellipse transform="matrix(0.7071 -0.7071 0.7071 0.7071 -73.9448 195.0434)" class="st2" cx="198.5" cy="186.8" rx="102" ry="102"/>
			<rect x="211.9" y="22.8" class="st3" width="141.3" height="82.2"/>
			<line class="st4" x1="350.7" y1="86.9" x2="350.4" y2="86.9"/>
			<line class="st4" x1="213.9" y1="86.9" x2="213.7" y2="86.9"/>
			<rect x="214.3" y="26.9" class="st1" width="136.6" height="73.4"/>
			<line class="st5" x1="214.4" y1="90.7" x2="350.8" y2="90.7"/>
			<line class="st6" x1="266" y1="90.7" x2="214.4" y2="90.7"/>
			
				<image style="overflow:visible;opacity:0.85;enable-background:new    ;" width="19" height="19" xlink:href="D7B1A9FC.png"  transform="matrix(1 0 0 1 257.25 82.37)">
			</image>
			<circle class="st7" cx="265.9" cy="90.8" r="2.9"/>
			
				<ellipse transform="matrix(0.1594 -0.9872 0.9872 0.1594 177.4992 330.0712)" class="st8" cx="282.6" cy="60.8" rx="16.6" ry="16.6"/>
			<path class="st9" d="M290.1,62.8l-9.8,5.7c-0.6,0.3-1.3,0.1-1.6-0.4c-0.1-0.2-0.2-0.4-0.2-0.6V56.1c0-0.7,0.6-1.2,1.2-1.2
				c0.2,0,0.4,0.1,0.6,0.2l9.8,5.7c0.6,0.3,0.7,1.1,0.4,1.6C290.4,62.6,290.2,62.7,290.1,62.8z"/>
			<polygon class="st3" points="286.2,114.6 286.2,105 278.9,105 278.9,114.6 257.7,119.2 257.7,121 278.9,121 286.2,121 307.4,121 
				307.4,119.2 			"/>
			<polygon class="st3" points="339.4,191.9 336.3,176.9 325.9,126.4 350.4,177.1 			"/>
			<polygon class="st3" points="325.9,126.4 370.2,165.8 357.1,173.6 			"/>
			<polygon class="st10" points="357.1,173.6 349,174.2 325.9,126.4 			"/>
			<polygon class="st10" points="336.3,176.9 330.9,176.8 325.9,126.4 			"/>
			<polygon class="st3" points="337.7,239.9 338.6,230.5 341.8,199 346.9,233.3 			"/>
			<polygon class="st3" points="341.8,199 360.5,230.3 351.4,232.4 			"/>
			<polygon class="st10" points="351.4,232.4 346.6,231.3 341.8,199 			"/>
			<polygon class="st10" points="338.6,230.5 335.5,229.4 341.8,199 			"/>
			<polygon class="st11" points="312.6,261.3 317.1,257.1 332.1,242.8 320,261.9 			"/>
			<polygon class="st11" points="332.1,242.8 328.1,266.3 322.6,263.5 			"/>
			<polygon class="st10" points="322.6,263.5 320.7,260.8 332.1,242.8 			"/>
			<polygon class="st10" points="317.1,257.1 316,255.2 332.1,242.8 			"/>
			<rect x="214.3" y="276.4" class="st3" width="109.5" height="63.7"/>
			<rect x="216.2" y="278.2" class="st9" width="105.8" height="60"/>
			<polygon class="st3" points="271.9,347.5 271.9,340.1 266.3,340.1 266.3,347.5 249.8,351.1 249.8,352.5 266.3,352.5 271.9,352.5 
				288.4,352.5 288.4,351.1 			"/>
			<path class="st3" d="M79.3,134.1c11.9-15.7,12.8-51.2,12.8-51.2s-9.4,2.7-18.5,1.6c-6-0.6-12.1,0-18,1.6c0,0,1.3,33.3-4.1,50.2
				c3.4-1.6,7.1-2.5,10.8-2.8C68.2,133.2,79.3,134.1,79.3,134.1z"/>
			<path class="st12" d="M85.6,91.4c0,0.3,0,0.7,0,1.2c-5.3,1-10.7,1.3-16,0.8c-3.6-0.3-7.3,0.3-10.6,1.7c0-0.4,0-0.8,0-1.2
				c3.4-1.4,7.1-1.9,10.8-1.6C75.1,92.7,80.4,92.4,85.6,91.4z"/>
			<path class="st12" d="M85.3,97.3c0,0.4,0,0.8-0.1,1.2c-5.3,1-10.8,1.2-16.2,0.4c-4-0.6-8.2,1-10.1,1.8c0-0.4,0-0.8,0.1-1.3
				c3.2-1.5,6.7-2.1,10.2-1.7C72.3,98.3,85.9,97.2,85.3,97.3z"/>
			<path class="st12" d="M84.7,103.1c0,0.4-0.1,0.8-0.1,1.2c-3.1,0.4-6.3,0.5-9.4,0.2c-2.1-0.1-4.2-0.3-6.4-0.2
				c-3.6,0.2-7,1-10.3,2.4c0-0.4,0.1-0.8,0.1-1.3c3.2-1.3,6.7-2.1,10.2-2.3c2.2,0,4.3,0,6.5,0.2C78.4,103.7,81.6,103.6,84.7,103.1z"
				/>
			<path class="st12" d="M83.9,109c-0.1,0.4-0.1,0.8-0.2,1.1c-1.2,0-2.6-0.1-4.2-0.1c-3.2-0.1-7.2-0.3-11.4-0.2
				c-3.5,0.2-7,1-10.3,2.3c0-0.4,0.1-0.8,0.2-1.3c3.2-1.3,6.6-2,10.1-2.2c4.8-0.1,8.7,0.1,11.4,0.2C81.2,109,82.7,109,83.9,109z"/>
			<path class="st12" d="M82.7,114.5c-0.1,0.4-0.2,0.8-0.3,1.1c-2.5-0.1-8.5-0.4-13.6-0.3c-4.2,0.1-9.5,1.8-11.8,2.7
				c0-0.4,0.1-0.8,0.2-1.3c3.7-1.4,7.6-2.2,11.6-2.5C73.5,114,79.9,114.3,82.7,114.5z"/>
			<path class="st12" d="M185.4,50.4c-10.3-10.7-17.1-6.6-17.1-6.6c0.6-2.5,1.3-5,2.2-7.5c6.1-7.4,13.8-13.3,22.5-17.4
				C184.3,33.4,185.4,50,185.4,50.4z"/>
			<path class="st3" d="M223.4,11.9c-10.5,0.1-20.8,2.5-30.3,7l0,0c-8.7,4.1-16.4,10-22.5,17.4c2.2-5.9,5.2-11.5,8.8-16.7
				c0.2-0.3,0.5-0.7,0.7-1c1.2-1.7,2.4-3.3,3.6-4.7l0.8-1c1.4-1.6,2.7-3.1,3.9-4.4l0,0c0.3-0.3,0.6-0.7,0.9-1
				c1.2-1.3,2.4-2.4,3.4-3.3c0.4-0.3,0.7-0.7,1.1-1c2.3-2,3.7-3.1,3.7-3.1C209.7,0.1,223.4,11.9,223.4,11.9z"/>
			<path class="st12" d="M208.2,9.1l-1.4,0.2c-4.2-3.4-11.5-4.8-14.1-5.2c0.4-0.3,0.7-0.7,1.1-1C200.7,4.3,202,3.3,208.2,9.1z"/>
			<path class="st12" d="M198,11.6c-0.4,0.1-0.8,0.3-1.2,0.4c-2.6-2.4-6.4-3.3-8.4-3.6c0.3-0.3,0.6-0.7,0.9-1
				C195.1,8.5,193.4,6.9,198,11.6z"/>
			<path class="st12" d="M189.8,15.1c-0.4,0.2-0.7,0.4-1.1,0.6c-1.5-0.9-3.2-1.6-5-1.9l0.8-1C186.3,13.3,188.1,14.1,189.8,15.1z"/>
			<path class="st12" d="M182.5,19.5l-1.1,0.7c-0.6-0.3-1.3-0.5-2-0.6c0.2-0.3,0.5-0.7,0.7-1C180.9,18.7,181.7,19,182.5,19.5z"/>
			<path class="st12" d="M153.4,26.9c-4.1,6.6-8.7,13-13.6,19c-8.3,9.9-19.1,20-29,20.4c-4.7-0.1-9.4-0.5-14-1.3
				c0,0,13.8-11.9,22.9-42C119.7,23,140.2,31.6,153.4,26.9z"/>
			<path class="st3" d="M139.8,45.8c-8.3,9.9-19.1,20-29,20.4c0,0,3.4,0,0.5-5.6C111.3,60.7,128.8,56.6,139.8,45.8z"/>
			<path class="st12" d="M71.9,259.9l23.4,5c2.4,0.5,3.9,2.8,3.4,5.2l-5,23.4c-0.5,2.4-2.8,3.9-5.2,3.4l-23.4-5
				c-2.4-0.5-3.9-2.8-3.4-5.2l5-23.4C67.2,260.9,69.5,259.4,71.9,259.9z"/>
			<path class="st13" d="M73.6,263.2l18.8,4c2.1,0.4,3.4,2.5,3,4.6l-4,18.8c-0.4,2.1-2.5,3.4-4.6,3l-18.8-4c-2.1-0.4-3.4-2.5-3-4.6
				l4-18.8C69.4,264,71.5,262.7,73.6,263.2z"/>
			<path class="st3" d="M77.5,268.6L75.3,279c-0.4-0.5-1-0.8-1.6-1c-1.6-0.3-3.1,0.7-3.5,2.3c-0.3,1.6,0.7,3.1,2.3,3.5
				c1.6,0.3,3.1-0.7,3.5-2.3c0,0,0,0,0,0l1.8-8.5l9.3,6.1l-1.1,5.2c-0.4-0.6-1-0.9-1.7-1.1c-1.6-0.3-3.1,0.7-3.5,2.3
				s0.7,3.1,2.3,3.5c1.6,0.3,3.1-0.7,3.5-2.3l2.2-10.2L77.5,268.6z"/>
			<path class="st12" d="M183.7,301.3l-2.3,10.7c-0.4-0.5-1-0.9-1.6-1c-1.6-0.3-3.2,0.7-3.5,2.3c-0.3,1.6,0.7,3.2,2.3,3.5
				c1.6,0.3,3.2-0.7,3.5-2.3l1.9-8.8l9.6,6.4l-1.1,5.4c-1-1.3-2.9-1.5-4.2-0.5c-1.3,1-1.5,2.9-0.5,4.2s2.9,1.5,4.2,0.5
				c0.6-0.4,0.9-1.1,1.1-1.8l2.3-10.6L183.7,301.3z"/>
			<path class="st12" d="M172.8,325.2h7.5l-1.9-3.4l-8.3-0.2l3.9,10.3c-1.6-0.4-3.3,0.5-3.7,2.1c-0.4,1.6,0.5,3.3,2.1,3.7
				c1.6,0.4,3.3-0.5,3.7-2.1c0.2-0.6,0.1-1.3-0.1-1.9L172.8,325.2z"/>
			<path class="st12" d="M188.4,328.4l4,1.9l-0.2-2.3l-4.4-2.2l-0.5,6.5c-0.7-0.7-1.9-0.6-2.5,0.2c-0.7,0.7-0.6,1.9,0.2,2.5
				c0.7,0.7,1.9,0.6,2.5-0.2c0.3-0.3,0.4-0.7,0.4-1L188.4,328.4z"/>
			<path class="st3" d="M109.9,303.5l22.5-8.2c2.3-0.8,4.8,0.3,5.6,2.6l8.2,22.5c0.8,2.3-0.3,4.8-2.6,5.6l-22.5,8.2
				c-2.3,0.8-4.8-0.3-5.6-2.6l-8.2-22.5C106.5,306.9,107.7,304.3,109.9,303.5z"/>
			<path class="st12" d="M122.5,311.7l3,8.2c0.2,0.5,0.7,0.8,1.3,0.6c0.2-0.1,0.4-0.2,0.5-0.4l4.6-6.3c0.3-0.4,0.2-1.1-0.2-1.4
				c-0.1-0.1-0.2-0.1-0.4-0.2l-7.6-1.9c-0.5-0.1-1.1,0.2-1.2,0.7C122.4,311.2,122.4,311.5,122.5,311.7z"/>
			
				<ellipse transform="matrix(0.7279 -0.6857 0.6857 0.7279 -181.3353 172.563)" class="st14" cx="126.8" cy="314.8" rx="10.6" ry="10.6"/>
			<path class="st3" d="M218.3,134.6c-20.2-10.2-44.7-5.1-59.3,12.1l-11.1-5.6l5,14.8l5.4,16l15.1-4.9l15.9-5.1l-8.6-4.3
				c10.3-8.9,26.6-10.8,40.9-3.6c13.5,6.8,21.6,19.8,21.6,32.7l0,0c0,0.3,0.2,2.9,0.9,2.3l0,0C249,167.1,238.4,144.7,218.3,134.6z"
				/>
			<path class="st3" d="M178.6,238.9c20.2,10.2,44.7,5.1,59.3-12.1l11.1,5.6l-5-14.8l-5.4-16l-15.1,4.9l-15.9,5.1l8.6,4.3
				c-10.3,8.9-26.6,10.8-40.9,3.6c-13.5-6.8-21.6-19.8-21.6-32.7l0,0c0-0.3-0.2-2.9-0.9-2.3l0,0C148,206.4,158.6,228.9,178.6,238.9z
				"/>
			<rect x="215.2" y="277.6" class="st1" width="107.5" height="60.8"/>
			<line class="st5" x1="215.3" y1="330.4" x2="322.6" y2="330.4"/>
			<line class="st6" x1="255.9" y1="330.4" x2="215.3" y2="330.4"/>
			
				<image style="overflow:visible;opacity:0.85;enable-background:new    ;" width="17" height="18" xlink:href="D7B1A9FF.png"  transform="matrix(1 0 0 1 248.25 322.37)">
			</image>
			<path class="st7" d="M258.1,330.5c-0.1,1.3-1.2,2.2-2.4,2.2c-1.3-0.1-2.2-1.2-2.2-2.4c0.1-1.2,1.1-2.2,2.3-2.2
				C257.1,328.1,258.2,329.2,258.1,330.5C258.1,330.5,258.1,330.5,258.1,330.5z"/>
			<ellipse class="st8" cx="268.9" cy="305.7" rx="13" ry="13.7"/>
			<path class="st9" d="M274.9,307.3l-7.7,4.7c-0.5,0.2-1.1,0.1-1.3-0.4c-0.1-0.1-0.1-0.2-0.1-0.4v-9.4c0-0.6,0.5-1,1.1-0.9
				c0.1,0,0.3,0,0.4,0.1l7.7,4.7c0.5,0.3,0.6,0.9,0.3,1.4C275.1,307.2,275,307.3,274.9,307.3z"/>
		</g>
	</g>
</g>
</svg>
